Coordinates
version=1
nRows=6
nColumns=36
inDegrees=yes

Units are S.I. units (second, meters, Newtons, ...)
If the header above contains a line with 'inDegrees', this indicates whether rotational values are in degrees (yes) or radians (no).

endheader
time	pelvis_tilt	pelvis_list	pelvis_rotation	pelvis_tx	pelvis_ty	pelvis_tz	hip_flexion_r	hip_adduction_r	hip_rotation_r	knee_angle_r	knee_angle_r_beta	ankle_angle_r	subtalar_angle_r	mtp_angle_r	hip_flexion_l	hip_adduction_l	hip_rotation_l	knee_angle_l	knee_angle_l_beta	ankle_angle_l	subtalar_angle_l	mtp_angle_l	lumbar_extension	lumbar_bending	lumbar_rotation	arm_flex_r	arm_add_r	arm_rot_r	elbow_flex_r	pro_sup_r	arm_flex_l	arm_add_l	arm_rot_l	elbow_flex_l	pro_sup_l
      0.00000000	     11.78633208	     -1.29543862	     -2.01950225	      0.63803745	      1.03998254	      0.70917467	     12.55083588	     -1.39726126	      0.85230843	     50.99566596	      0.89004228	     -0.71120493	    -17.42246825	     -6.99941201	    -10.76308572	      1.26818266	     -2.62866940	     10.03577247	      0.17515727	     10.03371912	     -7.54880209	     -6.99941201	    -25.74385700	      0.36942777	      2.03334719	     -3.69380674	    -13.11796617	     -6.77064696	     29.55548274	     91.78369194	     15.62983139	    -13.25937321	      8.52126625	     29.95194377	     90.20763081
      0.01666670	     12.53252350	     -0.67084048	     -2.08631049	      0.63601992	      1.03969551	      0.71036364	     12.67346127	     -2.34052451	      0.03780558	     46.66232202	      0.81441116	      1.31701524	    -15.14270027	     -7.14041241	    -12.91936286	      2.20157376	      0.31992071	     10.01971551	      0.17487703	     10.73182852	     -9.11588606	     -7.14041241	    -26.24215218	     -0.49726211	      2.14929866	     -3.77879761	    -12.82057660	     -7.89479574	     28.67631137	     99.99699836	     16.13139346	    -14.17380391	     10.72131088	     30.55585492	     94.71879387
      0.03333330	     12.77592098	     -0.14488444	     -1.88948758	      0.63454570	      1.03986077	      0.71168261	     12.73774528	     -2.88814647	     -0.06576389	     42.01546845	      0.73330826	      2.92118963	    -13.60353311	     -7.16768311	    -14.48261139	      2.71084535	      2.17925209	      9.58497331	      0.16728934	     11.12248433	     -8.44344847	     -7.16768311	    -26.44103015	     -1.14645977	      1.96429230	     -4.42597976	    -12.85980089	     -6.91621143	     28.50077273	    100.29518797	     17.14627837	    -15.07555310	     13.44761006	     30.42164117	     94.51447819
      0.05000000	     12.85922989	      0.02880750	     -1.60845375	      0.63388021	      1.03805639	      0.71202496	     12.79443855	     -3.07691714	     -0.24736194	     37.33365165	      0.65159514	      3.32380125	    -12.77431425	     -7.16237045	    -15.87428730	      2.79950251	      3.05483415	      8.95727457	      0.15633393	     11.86017293	     -7.47993999	     -7.16237045	    -26.46497621	     -1.29469430	      1.93644928	     -5.34919025	    -12.94458270	     -7.20264837	     28.96437208	    101.05892430	     17.70218151	    -15.46016355	     14.45674339	     30.63244683	     94.58364351
      0.06666670	     12.69033466	      0.21666986	     -1.65709166	      0.63243029	      1.03636543	      0.71324796	     12.99735820	     -3.14411075	      0.01358571	     32.49319828	      0.56711329	      2.80241619	    -12.03270308	     -7.15339679	    -16.90883454	      2.98928451	      3.50904042	      8.37396799	      0.14615331	     12.56035779	     -6.87125775	     -7.15339679	    -26.34423485	     -1.52733531	      2.32517666	     -6.18507394	    -13.17561143	     -7.47692350	     29.45348041	    101.63595972	     18.38931560	    -15.68573234	     15.42511607	     30.86520018	     94.39355557
      0.08333330	     12.30247926	      0.37336910	     -1.80355303	      0.63093220	      1.03350615	      0.71488272	     13.27316632	     -3.16641344	      0.27277991	     27.56579405	      0.48111387	      2.00867448	    -11.49079127	     -7.15030546	    -17.64843281	      3.13715717	      3.86683880	      7.80511519	      0.13622496	     13.19036692	     -6.29284053	     -7.15030546	    -26.00659339	     -1.74221125	      2.80687023	     -6.92022483	    -13.32367508	     -7.68561493	     29.91495868	    101.53433248	     18.95128643	    -15.83788522	     16.16736425	     31.26141629	     93.48429498
